<?xml version="1.0" encoding="utf-8"?>
<!-- Generator: Adobe Illustrator 29.5.1, SVG Export Plug-In . SVG Version: 9.03 Build 0)  -->
<svg version="1.1" baseProfile="tiny"
	 id="Layer_1" xmlns:sodipodi="http://sodipodi.sourceforge.net/DTD/sodipodi-0.dtd" xmlns:inkscape="http://www.inkscape.org/namespaces/inkscape" xmlns:svg="http://www.w3.org/2000/svg"
	 xmlns="http://www.w3.org/2000/svg" xmlns:xlink="http://www.w3.org/1999/xlink" x="0px" y="0px" viewBox="0 0 2730.7 2730.7"
	 overflow="visible" xml:space="preserve">
<g id="svg1" sodipodi:docname="logo.png">
	
		<sodipodi:namedview  bordercolor="#000000" borderopacity="0.25" id="namedview1" inkscape:current-layer="g1" inkscape:cx="926.37815" inkscape:cy="665.02565" inkscape:deskcolor="#d1d1d1" inkscape:pagecheckerboard="0" inkscape:pageopacity="0.0" inkscape:showpageshadow="2" inkscape:window-height="1238" inkscape:window-maximized="1" inkscape:window-width="2304" inkscape:window-x="0" inkscape:window-y="30" inkscape:zoom="0.19322563" pagecolor="#ffffff" showgrid="false">
		<inkscape:page  bleed="0" height="2730.6667" id="page2" margin="0" width="2730.6667" x="0" y="0"></inkscape:page>
	</sodipodi:namedview>
	<g id="g1" inkscape:groupmode="layer" inkscape:label="Image">
		<path id="path1887" display="none" d="M936.7,1962.1l-1.3-1.6l0.2-136.1l0.2-136.1l41.7-0.7c23-0.4,40.9-0.8,40-1
			s-19.5-18.1-41.1-39.6l-39.4-39.3l-0.9-117.5c-0.5-64.6-0.9-234.6-0.9-377.7V852.3l1.5-0.9l1.5-0.9l135.6,135.6l135.6,135.6h347.3
			l135.4-135.4c74.5-74.5,136-135.2,136.7-134.9l1.4,0.5v241.2c0,132.7-0.3,247.1-0.7,254.3c-0.6,9.8-1.7-138.5-1.6-212.9v-9.8
			l-5.5-0.9c-3.1-0.5-125.7-0.5-272.7,0l-267.2,1v2.3c-0.2,1.2-0.2,5.5-0.2,9.6c0,11.9-1.7,11.4-2.6-0.6l-0.7-11l-38.6-0.7
			c-21.2-0.4-39-1.1-39.6-1.7s0-1,0.9-1s-57.1-59.1-129.3-131.3S940.7,859.1,940.1,859.1s-1,59.1-1,131.3v131.3h3.3l-1.6,1.6
			l-1.6,1.6v324.9h340.5v-2.1c0-1.1,0.6-2.1,1.3-2.1h1.3v48.1c0,26.5,0.4,48.3,0.6,48.6c0.2,0.2,46.1,0.4,101.7,0.4h101.2l0.8,1.6
			c0.4,0.9,0.5-26.3,0.3-60.5l-0.5-62.3l1.8-13.6c5-37.7,22.8-73.7,49.7-100.5l13.1-13l13.9-9.3c87-57.8,205.6-31,254.7,57.7
			c3.9,7.1,6.9,13.9,6.7,15.4l-0.4,2.6l-6.2-11.7c-28.4-54.3-82.9-88.4-146-91.7l-16.1-0.8l-14.4,2.2
			c-78.1,11.8-134.8,64.6-151.3,141l-2.4,11v45.1l2.4,11.6c16.2,75.4,69.7,128.9,143,142.9l11.3,2.2h18.2
			c66.5,0,125.3-34.5,157.2-92l5.1-9.2l1.9,1.5l1.9,1.5v91.9l-105.2,105.2c-57.9,57.8-105.1,105.3-104.9,105.3s52-0.2,115.2-0.6
			l114.9-0.7l10.5-2.9c52.3-14.7,89.7-60.3,94.1-114.6l0.8-11l73.7-0.3l73.7-0.3l-0.8,16.8c-6.3,133.1-119.7,248.6-254.7,259.4
			l-17.7,1.4H938l-1.3-1.6l-0.2-0.2L936.7,1962.1L936.7,1962.1z M1477.4,1956.1c1.8-2.1,3.7-3.4,4.1-3.1c0.4,0.4-0.6,2.1-2.2,3.7
			l-2.8,3.1l191.2-0.5l191.2-0.5l11-2.2c89.5-17.3,160-69.8,200.4-149.6l9.1-17.9l7-21c7.2-21.5,11.5-42.8,13.1-64.3l0.9-12h-3.5
			l2.1-1.3l2.1-1.3h-70.8c-38.9,0-70.7,0.4-70.6,1c0.3,1.1-1,10.7-3.1,22.9c-9.2,54.3-53.3,96.8-109.2,105.3l-13,1.9h-219.5
			l-4.8,4.2c-2.7,2.4-4.8,3.6-4.8,2.9c0-1.4,8.6-8.5,12.2-10.2l2.2-0.9h-1.8c-1,0,26.6-28.5,61.2-63.2c34.7-34.7,63-63.3,63-63.6
			s-80.4-0.4-178.8-0.2l-178.8,0.3l-0.4,135l-0.4,135l3.8,0.4c2.1,0.2,22.4,0.3,45.1,0l41.4-0.3L1477.4,1956.1L1477.4,1956.1
			L1477.4,1956.1z M1381,1828.7c0-121.6,0-137.2-0.7-138.1c-0.2-0.3-290.1-0.6-399.1-0.4h-42.1v269.4h441.7v-131L1381,1828.7
			L1381,1828.7z M1205.6,1685.6c0.6-0.6,0.4-232.2-0.2-232.8s-60.3-0.8-133.3-1.1l-132.8-0.5v14.7c0,8-0.2,42.6-0.2,76.7v62.2
			l12.7,12.9c33.8,34.4,68.3,68,70.4,68.7C1024.4,1687.1,1204.9,1686.4,1205.6,1685.6L1205.6,1685.6L1205.6,1685.6L1205.6,1685.6z
			 M1785.7,1645.9l41-41v-42.4l-0.2-42.4l-1.6,2.5c-0.9,1.3-5.2,8-9.6,14.8s-13.5,17.8-20.5,24.8c-6.9,7-12.4,13.1-12.2,13.7
			s-0.3,0.7-1.1,0.2c-0.8-0.5-4.4,1.5-8,4.6c-14.5,12.1-45.2,25.6-72.1,31.7l-13.6,3.1H1666c-83.9,0.2-151.2-52.4-174.6-136.5
			l-2.7-9.5l0.7,56c0.4,30.8,0.7,79.9,0.7,109.1v53.1l127.2-0.4l127.2-0.4l41-41L1785.7,1645.9L1785.7,1645.9L1785.7,1645.9z
			 M1486.2,1616.7v-69.4l-50.3,50.3c-59.9,59.9-43.2,60.1-104.6-1.3l-51.6-51.6v-92.3h-71.1v233.8h277.6V1616.7L1486.2,1616.7
			L1486.2,1616.7L1486.2,1616.7z M1433.7,1545.7c-26.7-0.2-70.7-0.2-97.6,0l-49.1,0.4l22.3,22.9c12.3,12.6,23,22.9,23.8,22.9
			s1.4,0.5,1.4,1c0,1.8,47.5,49.5,48.3,48.6c0.5-0.5,0.9,0,0.9,1s22.2-20.3,49.2-47.3l49.2-49.1L1433.7,1545.7L1433.7,1545.7
			L1433.7,1545.7L1433.7,1545.7z M1826.7,989.1V856.9l-5,4.7c-2.8,2.6-62.6,62.1-132.9,132.2l-127.9,127.5h266V989.1H1826.7
			L1826.7,989.1z M1648.9,1543.9c-46.9-7.5-82.6-46.3-88.9-96.4l-1.6-13.1l1.5-12.2c5.7-44.8,31.9-77.9,73-92.6l9.9-3.5l19.3-0.6
			l19.3-0.6l10.6,2.9c24.9,6.9,48.4,24.4,61.2,45.8l4.5,7.6h67.9l2.7,1.4l2.7,1.4v102.2l-2.2,0.8c-1.2,0.4-17.4,0.8-36.1,0.8h-33.9
			l-4.1,7.2c-2.3,4-8.4,11.8-13.6,17.4l-9.5,10.3l-10.9,6.5c-5.9,3.6-16.5,8.3-23.5,10.7l-12.7,4.2l-13.9,0.5
			c-7.7,0.3-17.3,0-21.4-0.7L1648.9,1543.9L1648.9,1543.9z M1688.2,1539c5.4-1.1,10.7-2.9,11.6-3.8s2.6-1.4,3.6-1.1l1.8,0.6l-1-1.7
			l-1-1.7l1.9,0.7c7.5,2.7,34.2-19.2,45.1-37c7.5-12.1,4.1-11.3,43.1-11.2h33l0.7-3c1-4.2,1-88.4,0-92.3l-0.8-3.1h-70.8l-2.3-4.4
			c-12.7-24.6-39.4-44.9-67.2-51.1l-10.2-2.3l-14.6,0.6l-14.6,0.6l-12.9,4.4c-26.5,8.9-44,23.9-58.1,49.5
			c-5.5,10.2-10.8,24.2-9.8,26.7c0.3,0.9,0,1.9-1,2.2l-1.6,0.5v43.5l3.9,11.5c18.1,54.4,66.5,83.1,120.8,71.7l0,0l0.2,0.2
			L1688.2,1539L1688.2,1539z"/>
		<g id="g1884">
			<path id="path1886" fill="none" stroke="#000000" stroke-width="120" stroke-miterlimit="10" d="M2082.6,1770.2
				c-123.7,126-258.1,259.5-401.3,403.6c62.9,2.3,333.7,0,444.1,0c116.1-26.9,197.3-124.5,200-244.1c68.4-0.4,205.7-1,274.1-1.4
				c10.5,269.6-241.5,518.3-520.7,522H386.5 M386.4,2510.4c0-88-0.3-546.2-0.8-579.8c26.7-0.6,148.3-2.5,154.3-3.3
				c-9-9.7-148.8-150.8-153.1-157.4v-1423c0,0,422.7,418.4,517.4,508.8h660.9c127-127,382.4-382.6,509.2-509.6
				c1.8,0.6,5.5,1.8,7.2,2.3c-1,183.7,0,879.8,0,921.7c-64.7-116.1-168.2-157.7-309.6-162.8c-186.4,5.6-342.6,151.9-336.8,344.4
				c-3.5,175.3,139.9,321,308.5,336.8 M903.9,1929.9l529.8-1.5 M1238.4,1850.5l-4.3-2.3c-4.7-2.5-185-183.9-188.9-190.1
				c-3.1-10.1-1.3-143.9-1.9-177.6 M2042.8,1526.2l-5.3,5.3h-108.6c-32.5,59.8-109.2,103-169.9,90.7l0,0
				c-97.3-14.9-156.9-103.2-146.2-201.2c26.3-159.5,237.2-201.6,313.9-55.9h110.7l5.3,5.3"/>
			<path id="path1885" fill="none" stroke="#000000" stroke-width="120" stroke-miterlimit="10" d="M385.9,1930
				c210.2,0,638.8-0.2,848.9-0.2c-0.8,100.1,3.9,490.1-1.4,520.7 M1413.5,2448.5c-13.4,1.9,256.5-269.4,267.6-271.9
				c23-1.8,362.1-2.3,444.5-2.7c116.3-26.9,197.3-124.5,200-244.1c68.4-0.4,205.7-1,274.1-1.4c10.5,269.6-241.1,517.9-520.5,522
				c-120.6,0-635.6,0.6-665.6-2.1L1413.5,2448.5L1413.5,2448.5L1413.5,2448.5z M1430.4,1655.5c-13.8,4.5-155.1,159.9-192.1,194.8
				c-16.4-9.2-154.1-152.7-192.5-190.3C1014.4,1660.3,1353.7,1657.1,1430.4,1655.5c6.5-2.7-1.9-167.3,10.8-136
				c33.3,154.9,170.2,275.1,344.2,270.6l41.5-1.4c111.2-7.2,180.8-67.7,253.4-157.2c3.4-10.9-6.9,22.6,1.5,4.2l0.8,134.2
				c-40.1,42.9-109.7,110.8-160.5,160.7c-119.6,0-368.9-2.3-488.5-2.3 M1759,1622.2c-97.3-14.9-156.9-103.2-146.2-201.2
				c26.3-159.5,237.2-201.6,313.9-55.9h110.7l44,0.5v166.1l-44-0.2h-108.6c-32.5,59.8-109.2,103-169.9,90.7H1759L1759,1622.2z
				 M904.1,855.9h137.1c-0.4,155.1,3,467.1,2.6,622c-162.1,0.4-492.1,1-654,1.4 M388.3,1475.2L388.3,1475.2 M1569.9,850.8
				c125.6-125.8,378.7-379.1,504.5-504.7l7.2-8v516.4c-125.6,0.4-378.3,1-503.9,1.2"/>
			<path id="path1884" fill="none" stroke="#000000" stroke-width="120" stroke-miterlimit="10" d="M1060.7,2445.8
				c-110.3-114.7-345.6-340.9-456.8-458.7c-25.5-20.9-37.3-30.6-49.7-46c-6.4-3.3-11.3-7-10.9-8c-2.7-2.9,515.2-3.7,692.9-2.1
				c-0.4,128.2-1,386.1-1.4,514.2C1201.1,2445.6,1072.2,2447.9,1060.7,2445.8L1060.7,2445.8L1060.7,2445.8z M896,855.6
				c-19.7,1.2-504.4-5.7-504,3.2V850v0.2"/>
		</g>
	</g>
</g>
</svg>
